<?xml version="1.0" encoding="iso-8859-1"?>
<!-- Generator: Adobe Illustrator 19.0.0, SVG Export Plug-In . SVG Version: 6.00 Build 0)  -->
<svg version="1.1" id="Capa_1" xmlns="http://www.w3.org/2000/svg" xmlns:xlink="http://www.w3.org/1999/xlink" x="0px" y="0px"
	 viewBox="0 0 512 512" style="enable-background:new 0 0 512 512;" xml:space="preserve">
<path style="fill:#73553A;" d="M296.316,25.499l-30,30C263.617,58.5,259.717,60,255.816,60c-3.901,0-7.8-1.5-10.499-4.501l-30-30
	c-6-5.7-6-15.298,0-20.999c5.7-6,15.298-6,20.999,0l19.501,19.199l19.5-19.199c5.7-6,15.298-6,20.999,0
	C302.316,10.2,302.316,19.799,296.316,25.499z"/>
<path style="fill:#59422D;" d="M266.316,55.499C263.617,58.5,259.717,60,255.816,60V23.699L275.317,4.5c5.7-6,15.298-6,20.999,0
	c6,5.7,6,15.298,0,20.999L266.316,55.499z"/>
<path style="fill:#896748;" d="M330.816,107c0,20.7-8.401,39.6-21.899,53.101c-13.5,13.498-32.4,21.899-53.101,21.899
	c-41.4,0-75-33.6-75-75c0-20.7,8.401-41.6,21.899-55.101C216.216,38.4,235.116,30,255.816,30c20.7,0,39.6,8.401,53.101,21.899
	C322.416,65.399,330.816,86.299,330.816,107z"/>
<path style="fill:#73553A;" d="M330.816,107c0,20.7-8.401,39.6-21.899,53.101c-13.5,13.498-32.4,21.899-53.101,21.899V30
	c20.7,0,39.6,8.401,53.101,21.899C322.416,65.399,330.816,86.299,330.816,107z"/>
<path style="fill:#664B34;" d="M340.417,315.5l-84.6,1.5l-86.7,1.5l19.8-171.3c20.7-16.501,43.799-24.901,66.899-24.901
	c22.8,0,45.601,8.101,66,24L340.417,315.5z"/>
<path style="fill:#59422D;" d="M340.417,315.5l-84.6,1.5V122.3c22.8,0,45.601,8.101,66,24L340.417,315.5z"/>
<path style="fill:#FEDB41;" d="M347.917,385.699C323.016,409.1,290.317,422,255.816,422c-35.4,0-69-13.5-94.2-38.401l1.201-12.299
	l6.299-52.8c19.2-28.2,51.301-46.5,86.7-46.5c34.2,0,65.099,17.1,84.6,43.5l6.899,63.3L347.917,385.699z"/>
<path style="fill:#FCBF29;" d="M347.917,385.699C323.016,409.1,290.317,422,255.816,422V272c34.2,0,65.099,17.1,84.6,43.5
	l6.899,63.3L347.917,385.699z"/>
<path style="fill:#FEDB41;" d="M270.816,467v30c0,8.401-6.599,15-15,15c-8.401,0-15-6.599-15-15v-30c0-8.401,6.599-15,15-15
	C264.217,452,270.816,458.599,270.816,467z"/>
<path style="fill:#FCBF29;" d="M349.449,485.632c-3.838,0-7.676-1.465-10.605-4.395l-21.211-21.211
	c-5.859-5.859-5.859-15.352,0-21.211s15.352-5.859,21.211,0l21.211,21.211c5.859,5.859,5.859,15.352,0,21.211
	C357.125,484.168,353.287,485.632,349.449,485.632z"/>
<path style="fill:#FEDB41;" d="M162.184,485.632c-3.838,0-7.676-1.465-10.605-4.395c-5.859-5.859-5.859-15.352,0-21.211
	l21.211-21.211c5.859-5.859,15.352-5.859,21.211,0s5.859,15.352,0,21.211l-21.211,21.211
	C169.859,484.168,166.022,485.632,162.184,485.632z"/>
<path style="fill:#72ECFF;" d="M407.01,418.206c-9.126,0-18.296-1.187-27.349-3.618c-27.085-7.251-49.731-24.639-63.765-48.926
	c-23.496-40.723-64.219-188.071-6.563-221.382c57.642-33.281,164.941,75.688,188.438,116.382
	c28.945,50.142,11.704,114.478-38.438,143.438C443.163,413.445,425.204,418.206,407.01,418.206z"/>
<path style="fill:#BBFBFD;" d="M104.992,418.206c-18.193,0-36.152-4.761-52.339-14.106C2.526,375.14-14.715,310.789,14.23,260.662
	l0,0c14.385-24.917,47.725-60.015,81.064-85.356c31.729-24.082,76.084-49.072,107.358-31.025
	c31.245,18.047,31.831,68.965,26.821,108.501c-5.259,41.528-18.999,87.949-33.384,112.881c-14.019,24.287-36.665,41.66-63.75,48.926
	C123.288,417.019,114.103,418.206,104.992,418.206z"/>
<path style="fill:#FCBF29;" d="M270.816,467v30c0,8.401-6.599,15-15,15v-60C264.217,452,270.816,458.599,270.816,467z"/>
<g>
</g>
<g>
</g>
<g>
</g>
<g>
</g>
<g>
</g>
<g>
</g>
<g>
</g>
<g>
</g>
<g>
</g>
<g>
</g>
<g>
</g>
<g>
</g>
<g>
</g>
<g>
</g>
<g>
</g>
</svg>
