<?xml version="1.0" encoding="iso-8859-1"?>
<!-- Generator: Adobe Illustrator 19.0.0, SVG Export Plug-In . SVG Version: 6.00 Build 0)  -->
<svg version="1.1" id="Capa_1" xmlns="http://www.w3.org/2000/svg" xmlns:xlink="http://www.w3.org/1999/xlink" x="0px" y="0px"
	 viewBox="0 0 512.001 512.001" style="enable-background:new 0 0 512.001 512.001;" xml:space="preserve">
<path style="fill:#C4D55F;" d="M450.916,316.886c0,22.813-3.602,45.327-9.907,66.338l-41.124,27.918
	c-47.128-14.409-80.747-21.313-114.067-21.313c-33.92,0-67.239,7.204-114.067,21.313l-41.124-27.918
	c-6.305-21.011-9.907-43.525-9.907-66.338l0.3-123.073l12.006-57.333c4.504-22.213,17.711-40.523,35.721-50.43
	c15.309-8.106,32.72-9.305,48.929-2.703l15.91,6.305h104.462l15.91-6.305c16.208-6.603,33.62-5.403,48.929,2.703
	c18.01,9.907,31.217,28.217,35.721,50.43l12.006,57.333L450.916,316.886z"/>
<g>
	<path style="fill:#98CB51;" d="M450.916,316.886c0,22.813-3.602,45.327-9.907,66.338l-41.124,27.918
		c-47.128-14.409-80.747-21.313-114.067-21.313V89.653h52.231l15.91-6.305c16.208-6.603,33.62-5.403,48.929,2.703
		c18.01,9.907,31.217,28.217,35.721,50.43l12.006,57.333L450.916,316.886z"/>
	<path style="fill:#98CB51;" d="M441.009,383.224c-3.001,9.606-6.903,18.911-11.107,27.918
		c-10.806,23.413-25.514,44.425-44.125,60.935c-28.517,25.815-63.937,39.924-99.96,39.924c-31.518,0-62.438-10.806-88.853-30.919
		c-3.902-2.701-7.504-5.703-11.107-9.005c-4.201-3.602-7.805-7.504-11.706-11.707c-12.908-14.108-24.014-30.918-32.418-49.229
		c-4.202-9.006-8.106-18.012-11.107-27.918c26.115-8.104,52.831-14.107,79.846-18.01c9.907-1.501,19.813-2.402,29.717-3.302
		c15.009-1.202,30.318-1.801,45.628-1.801C338.049,360.111,390.579,367.615,441.009,383.224z"/>
</g>
<path style="fill:#60C244;" d="M441.009,383.224c-3.001,9.606-6.903,18.911-11.107,27.918
	c-10.806,23.413-25.514,44.425-44.125,60.935c-28.517,25.815-63.937,39.924-99.96,39.924v-151.89
	C338.049,360.111,390.579,367.615,441.009,383.224z"/>
<g>
	<path style="fill:#EB4F00;" d="M435.907,331.894c-41.377,0-75.044-33.667-75.044-75.044s33.667-75.044,75.044-75.044
		s76.045,33.667,76.045,75.044S477.283,331.894,435.907,331.894z"/>
	<path style="fill:#EB4F00;" d="M220.08,458.568c-6.603,8.406-14.407,16.211-23.115,22.513C173.253,499.092,143.034,512,109.716,512
		C49.979,512,0.05,471.176,0.05,421.048c0-41.724,27.416-64.238,51.73-67.54c25.216-3.602,47.429,11.107,54.632,36.921
		c2.402,8.106-2.4,16.208-10.205,18.611c-8.106,2.101-16.21-2.402-18.611-10.205c-3.303-11.407-11.407-17.11-21.614-15.61
		c-12.306,1.501-25.916,14.107-25.916,37.822c0,33.62,36.423,60.935,79.649,60.935c24.314,0,46.126-9.606,64.439-21.614
		c8.704-5.703,16.209-12.306,22.213-20.111c7.805-10.505,15.908-48.328,14.107-75.044c9.907-1.501,19.813-2.402,29.717-3.302
		C242.894,393.43,235.99,437.856,220.08,458.568z"/>
</g>
<path style="fill:#FF6200;" d="M135.731,331.894c-41.377,0-75.044-33.667-75.044-75.044s33.667-75.044,75.044-75.044
	s75.044,33.667,75.044,75.044S177.107,331.894,135.731,331.894z"/>
<circle style="fill:#57555C;" cx="135.73" cy="256.85" r="15.009"/>
<g>
	<circle style="fill:#3C3A41;" cx="435.906" cy="256.85" r="15.009"/>
	<circle style="fill:#3C3A41;" cx="315.836" cy="316.886" r="15.009"/>
</g>
<circle style="fill:#57555C;" cx="255.8" cy="316.886" r="15.009"/>
<path style="fill:#98CB51;" d="M358.461,98.357L298.425,6.303C295.425,2.099,290.621,0,285.819,0c-4.802,0-9.606,2.099-12.606,6.303
	l-60.035,92.054c-2.703,4.202-3.303,9.305-1.202,14.109l60.035,150.088c2.101,5.703,7.805,9.305,13.809,9.305
	c6.005,0,11.707-3.602,13.809-9.305l60.035-150.088C361.764,107.662,361.163,102.559,358.461,98.357z"/>
<path style="fill:#60C244;" d="M285.819,271.859V0c4.802,0,9.606,2.099,12.606,6.303l60.035,92.054
	c2.703,4.202,3.303,9.305,1.202,14.109l-60.035,150.088C297.526,268.257,291.822,271.859,285.819,271.859z"/>
<g>
</g>
<g>
</g>
<g>
</g>
<g>
</g>
<g>
</g>
<g>
</g>
<g>
</g>
<g>
</g>
<g>
</g>
<g>
</g>
<g>
</g>
<g>
</g>
<g>
</g>
<g>
</g>
<g>
</g>
</svg>
