<?xml version="1.0" encoding="iso-8859-1"?>
<!-- Generator: Adobe Illustrator 19.0.0, SVG Export Plug-In . SVG Version: 6.00 Build 0)  -->
<svg version="1.1" id="Capa_1" xmlns="http://www.w3.org/2000/svg" xmlns:xlink="http://www.w3.org/1999/xlink" x="0px" y="0px"
	 viewBox="0 0 511.999 511.999" style="enable-background:new 0 0 511.999 511.999;" xml:space="preserve">
<path style="fill:#787780;" d="M208.52,103.626c-6.857-42.567-41.146-77.837-83.375-85.763C94.49,12.046,64.291,19.328,40.143,38.26
	C16.319,56.928,1.695,84.914,0.025,115.055c-0.337,5.861,2.799,11.385,7.985,14.11c5.202,2.726,11.503,2.184,16.162-1.406
	c4.234-3.268,8.382-6.169,12.441-8.719c-9.817,21.54-8.997,46.508,2.521,68.107c12.001,22.463,33.819,36.896,59.93,38.669
	l110.146-92.65C210.338,123.481,210.103,113.546,208.52,103.626z"/>
<path style="fill:#57555C;" d="M471.855,38.26c-24.133-18.902-54.319-26.17-85.002-20.397
	c-42.244,7.927-76.532,43.197-83.375,85.763c-1.597,9.847-1.832,19.796-0.688,29.54l111.699,92.591
	c24.558-1.715,46.376-16.148,58.377-38.625c11.518-21.599,12.338-46.567,2.506-68.092c4.059,2.55,8.22,5.451,12.455,8.733
	c4.645,3.575,10.975,4.117,16.162,1.392c5.202-2.726,8.323-8.25,7.985-14.11C510.305,84.914,495.682,56.928,471.855,38.26z"/>
<path style="fill:#E5E5E5;" d="M74.872,75.961c6.066,0,11.532,3.663,13.847,9.275c2.33,5.598,1.04,12.06-3.253,16.353
	c-0.103,0.103-10.901,11.004-19.606,26.141c-7.912,13.803-8.015,30.727-0.249,45.278c7.194,13.495,19.591,21.804,33.98,22.8
	c14.888,1.143,29.687-2.213,44.296-9.642c0.952-1.26,2.11-2.403,3.487-3.341c24.148-16.646,36.222-45.16,31.519-74.422
	c-4.88-30.317-29.262-55.417-59.286-61.059c-21.994-4.073-43.68,1.011-60.957,14.535c-7.692,6.037-14.052,13.437-18.815,21.716
	C51.867,78.511,63.574,75.961,74.872,75.961z"/>
<path style="fill:#D9D9D9;" d="M368.025,186.137c14.652,7.458,29.584,10.814,44.384,9.671c14.389-0.996,26.771-9.305,33.98-22.8
	c7.751-14.55,7.663-31.475-0.264-45.278c-8.69-15.151-19.488-26.038-19.591-26.141c-4.293-4.293-5.583-10.755-3.253-16.353
	c2.315-5.612,7.78-9.275,13.847-9.275c11.297,0,23.005,2.564,35.035,7.634c-4.762-8.279-11.121-15.679-18.815-21.716
	c-17.29-13.554-38.904-18.712-60.957-14.535c-30.038,5.642-54.421,30.741-59.286,61.059c-4.703,29.203,7.326,57.689,31.402,74.335
	C365.886,183.69,367.059,184.848,368.025,186.137z"/>
<path style="fill:#8B8892;" d="M255.927,105.97c-107.434,0-196.06,87.626-196.06,195.059c0,107.432,88.626,195.059,196.06,195.059
	s196.06-87.628,196.06-195.059C451.986,193.597,363.359,105.97,255.927,105.97z"/>
<path style="fill:#787780;" d="M451.986,301.03c0,107.432-88.626,195.059-196.06,195.059V105.97
	C363.359,105.97,451.986,193.597,451.986,301.03z"/>
<circle style="fill:#57555C;" cx="164.9" cy="271.022" r="15.005"/>
<circle style="fill:#3C3A41;" cx="346.955" cy="271.022" r="15.005"/>
<g>
	<path style="fill:#57555C;" d="M316.945,406.062c0,8.402-6.601,15.005-15.005,15.005c-18.004,0-34.911-8.103-46.014-20.706
		c-11.103,12.603-28.01,20.706-46.014,20.706c-8.404,0-15.005-6.603-15.005-15.005c0-8.404,6.601-15.005,15.005-15.005
		c16.505,0,31.009-13.504,31.009-30.009c0-8.404,6.601-15.005,15.005-15.005c8.404,0,15.005,6.601,15.005,15.005
		c0,16.505,14.504,30.009,31.009,30.009C310.344,391.057,316.945,397.658,316.945,406.062z"/>
	<path style="fill:#57555C;" d="M255.927,226.007c-36.61,0-61.019,59.117-61.019,90.027c0,33.009,28.01,60.018,61.019,60.018
		s61.019-27.009,61.019-60.018C316.945,285.124,292.537,226.007,255.927,226.007z"/>
</g>
<g>
	<path style="fill:#3C3A41;" d="M316.945,406.062c0,8.402-6.601,15.005-15.005,15.005c-18.004,0-34.911-8.103-46.014-20.706v-54.317
		c8.404,0,15.005,6.601,15.005,15.005c0,16.505,14.504,30.009,31.009,30.009C310.344,391.057,316.945,397.658,316.945,406.062z"/>
	<path style="fill:#3C3A41;" d="M316.945,316.034c0,33.009-28.01,60.018-61.019,60.018V226.007
		C292.537,226.007,316.945,285.124,316.945,316.034z"/>
</g>
<g>
</g>
<g>
</g>
<g>
</g>
<g>
</g>
<g>
</g>
<g>
</g>
<g>
</g>
<g>
</g>
<g>
</g>
<g>
</g>
<g>
</g>
<g>
</g>
<g>
</g>
<g>
</g>
<g>
</g>
</svg>
