<?xml version="1.0" encoding="iso-8859-1"?>
<!-- Generator: Adobe Illustrator 19.0.0, SVG Export Plug-In . SVG Version: 6.00 Build 0)  -->
<svg version="1.1" id="Capa_1" xmlns="http://www.w3.org/2000/svg" xmlns:xlink="http://www.w3.org/1999/xlink" x="0px" y="0px"
	 viewBox="0 0 512 512" style="enable-background:new 0 0 512 512;" xml:space="preserve">
<path style="fill:#10BB67;" d="M507.8,313.599C486.2,387.999,381.7,466,256,466C127,466,20.4,384.099,2.701,307.599l39.3-29.399H470
	L507.8,313.599z"/>
<path style="fill:#0B8878;" d="M507.8,313.599C486.2,387.999,381.7,466,256,466V278.2h213.999L507.8,313.599z"/>
<path style="fill:#32D736;" d="M512,286c0,9-1.5,18.3-4.2,27.599l-217.8,54.6c-10.8,2.699-22.899,4.2-33.999,4.2
	s-23.2-1.501-33.999-4.2l-219.3-60.601C1.199,300.399,0,293.2,0,286c0-3.3,0.601-6.601,0.901-9.901
	c3.898-38.699,29.7-84.3,69.598-122.1L210,80.2c15-3.001,31-4.2,46-4.2s31,1.199,46,4.2l139.501,73.799
	c41.999,39.6,68.399,88.2,70.199,127.5C511.7,282.999,512,284.5,512,286z"/>
<g>
	<path style="fill:#10BB67;" d="M512,286c0,9-1.5,18.3-4.2,27.599l-217.8,54.6c-10.8,2.699-22.899,4.2-33.999,4.2V76
		c15,0,31,1.199,46,4.2l139.501,73.799c41.999,39.6,68.399,88.2,70.199,127.5C511.7,282.999,512,284.5,512,286z"/>
	<path style="fill:#10BB67;" d="M150,226c-49.629,0-90-40.371-90-90s40.371-90,90-90s90,40.371,90,90S199.629,226,150,226z"/>
</g>
<path style="fill:#0CA656;" d="M362,226c-49.629,0-90-40.371-90-90s40.371-90,90-90s90,40.371,90,90S411.629,226,362,226z"/>
<path style="fill:#00E2FF;" d="M362,76c-33.091,0-60,26.909-60,60s26.909,60,60,60s60-26.909,60-60S395.091,76,362,76z"/>
<path style="fill:#72ECFF;" d="M150,76c-33.091,0-60,26.909-60,60s26.909,60,60,60s60-26.909,60-60S183.091,76,150,76z"/>
<circle style="fill:#10BB67;" cx="225" cy="241" r="15"/>
<circle style="fill:#0CA656;" cx="287" cy="241" r="15"/>
<circle style="fill:#57555C;" cx="347" cy="151" r="15"/>
<circle style="fill:#787780;" cx="165" cy="151" r="15"/>
<g>
</g>
<g>
</g>
<g>
</g>
<g>
</g>
<g>
</g>
<g>
</g>
<g>
</g>
<g>
</g>
<g>
</g>
<g>
</g>
<g>
</g>
<g>
</g>
<g>
</g>
<g>
</g>
<g>
</g>
</svg>
