<?xml version="1.0" encoding="iso-8859-1"?>
<!-- Generator: Adobe Illustrator 19.0.0, SVG Export Plug-In . SVG Version: 6.00 Build 0)  -->
<svg version="1.1" id="Capa_1" xmlns="http://www.w3.org/2000/svg" xmlns:xlink="http://www.w3.org/1999/xlink" x="0px" y="0px"
	 viewBox="0 0 512 512" style="enable-background:new 0 0 512 512;" xml:space="preserve">
<path style="fill:#FFAC46;" d="M105,199.633c-57.891,0-105-47.109-105-105c0-28.037,10.928-54.404,30.762-74.238
	c5.625-5.625,15.586-5.625,21.211,0l127.266,127.28c5.859,5.859,5.859,15.352,0,21.211C159.434,188.705,133.066,199.633,105,199.633
	z"/>
<path style="fill:#FE8821;" d="M407,199.633c-28.052,0-54.419-10.913-74.238-30.747c-5.859-5.859-5.859-15.352,0-21.211
	c0.454-0.454,0.938-0.879,1.436-1.274c0.396-0.498,0.82-0.981,1.274-1.436l124.57-124.57c5.859-5.859,15.352-5.859,21.211,0
	C501.087,40.214,512,66.581,512,94.633C512,152.523,464.891,199.633,407,199.633z"/>
<path style="fill:#A07854;" d="M42.422,53.266C34.336,65.438,30,79.706,30,94.633c0,41.353,33.647,75,75,75
	c14.941,0,29.209-4.336,41.367-12.407L42.422,53.266z"/>
<path style="fill:#896748;" d="M365.633,157.226c12.158,8.071,26.426,12.407,41.367,12.407c41.353,0,75-33.647,75-75
	c0-14.941-4.336-29.209-12.407-41.367L365.633,157.226z"/>
<path style="fill:#FEDBAB;" d="M382,470.799l-2.701,1.5C350.799,487.899,318.401,496,286,496h-58.2
	c-32.701,0-64.799-8.101-93.6-23.701l-2.701-1.5c-75-41.1-106.5-134.399-71.4-212.699L94.9,180.7c8.101-17.701,18.9-33.3,31.5-47.1
	h261c12.599,13.801,23.399,29.399,31.199,47.1l34.801,77.4C488.5,336.4,457.301,429.699,382,470.799z"/>
<path style="fill:#FEC478;" d="M382,470.799l-2.701,1.5C350.799,487.899,318.401,496,286,496h-30V133.6h131.4
	c12.599,13.801,23.399,29.399,31.199,47.1l34.801,77.4C488.5,336.4,457.301,429.699,382,470.799z"/>
<path style="fill:#E5E5E5;" d="M301,382.899V391c0,24.899-20.099,45-45,45s-45-20.101-45-45v-8.101c0-8.101,6.599-15,15-15h60
	C294.401,367.899,301,374.799,301,382.899z"/>
<path style="fill:#D9D9D9;" d="M301,382.899V391c0,24.899-20.099,45-45,45v-68.101h30C294.401,367.899,301,374.799,301,382.899z"/>
<path style="fill:#FFAC46;" d="M387.4,133.6l-51,33.6c-21.599,13.801-35.4,37.5-35.4,63.3V301c0,8.399-6.599,15-15,15h-60
	c-8.401,0-15-6.601-15-15v-70.501c0-25.8-12.299-49.499-33.9-63.3l-50.7-33.6C159.101,97.899,205.901,76.3,256,76h0.901
	C307.301,76,354.101,97.599,387.4,133.6z"/>
<path style="fill:#FE8821;" d="M387.4,133.6l-51,33.6c-21.599,13.801-35.4,37.5-35.4,63.3V301c0,8.399-6.599,15-15,15h-30V76h0.901
	C307.301,76,354.101,97.599,387.4,133.6z"/>
<circle style="fill:#57555C;" cx="166.8" cy="241" r="15"/>
<circle style="fill:#3C3A41;" cx="346.8" cy="241" r="15"/>
<path style="fill:#A07854;" d="M391,331c0,41.4-33.6,75-75,75c-24.6,0-46.199-12.001-60-30.601C242.199,393.999,220.6,406,196,406
	c-41.4,0-75-33.6-75-75c0-8.401,6.599-15,15-15s15,6.599,15,15c0,24.899,20.099,45,45,45s45-20.101,45-45c0-8.401,6.599-15,15-15
	s15,6.599,15,15c0,24.899,20.099,45,45,45s45-20.101,45-45c0-8.401,6.599-15,15-15S391,322.599,391,331z"/>
<path style="fill:#73553A;" d="M256,256c-24.901,0-45,20.099-45,45c0,24.899,32.401,40.8,39,43.799c1.8,0.901,3.9,1.201,6,1.201
	s4.2-0.3,6-1.201c6.599-2.999,39-18.9,39-43.799C301,276.099,280.901,256,256,256z"/>
<path style="fill:#896748;" d="M391,331c0,41.4-33.6,75-75,75c-24.6,0-46.199-12.001-60-30.601V316c8.401,0,15,6.599,15,15
	c0,24.899,20.099,45,45,45s45-20.101,45-45c0-8.401,6.599-15,15-15S391,322.599,391,331z"/>
<path style="fill:#59422D;" d="M301,301c0,24.899-32.401,40.8-39,43.799c-1.8,0.901-3.9,1.201-6,1.201v-90
	C280.901,256,301,276.099,301,301z"/>
<g>
</g>
<g>
</g>
<g>
</g>
<g>
</g>
<g>
</g>
<g>
</g>
<g>
</g>
<g>
</g>
<g>
</g>
<g>
</g>
<g>
</g>
<g>
</g>
<g>
</g>
<g>
</g>
<g>
</g>
</svg>
