<?xml version="1.0" encoding="iso-8859-1"?>
<!-- Generator: Adobe Illustrator 19.0.0, SVG Export Plug-In . SVG Version: 6.00 Build 0)  -->
<svg version="1.1" id="Capa_1" xmlns="http://www.w3.org/2000/svg" xmlns:xlink="http://www.w3.org/1999/xlink" x="0px" y="0px"
	 viewBox="0 0 512 512" style="enable-background:new 0 0 512 512;" xml:space="preserve">
<path style="fill:#73553A;" d="M60,182c7.383,0,14.59,1.626,21.401,4.849l7.383,136.084C80.054,328.865,70.093,332,60,332
	c-33.091,0-60-33.647-60-75S26.909,182,60,182z"/>
<path style="fill:#FEC478;" d="M68.599,213.978l3.34,84.141C53.13,310.892,30,287.571,30,257
	C30,228.216,50.435,205.291,68.599,213.978z"/>
<path style="fill:#59422D;" d="M452,182c-7.383,0-14.59,1.626-21.401,4.849l-7.383,136.084C431.946,328.865,441.907,332,452,332
	c33.091,0,60-33.647,60-75S485.091,182,452,182z"/>
<path style="fill:#FEB756;" d="M443.401,213.978l-3.34,84.141C458.87,310.892,482,287.571,482,257
	C482,228.216,461.565,205.291,443.401,213.978z"/>
<path style="fill:#896748;" d="M452,197v150c0,8.399-6.599,15-15,15H75c-8.401,0-15-6.601-15-15V197C60,89.599,148.599,0,256,0
	S452,89.599,452,197z"/>
<path style="fill:#73553A;" d="M452,197v150c0,8.399-6.599,15-15,15H256V0C363.401,0,452,89.599,452,197z"/>
<path style="fill:#FEDBAB;" d="M398,233c-2.401-2.1-6-6.301-6-12.001v-20.7c0-38.401-30.601-74.099-66.899-77.999
	c-21.601-2.1-42.9,4.799-58.5,19.199c-2.701,2.401-7,3.6-10.6,3.6s-6.899-1.199-9.6-3.6c-15.899-14.399-38.2-21.299-59.5-19.199
	c-36.3,3.9-66.901,39.599-66.901,78V221c0,5.7-3.6,9.901-6,12.001C79.2,263.899,60,304.399,60,347c0,90.899,88.599,165,196,165
	s196-74.101,196-165C452,304.399,432.8,263.899,398,233z"/>
<path style="fill:#FEC478;" d="M452,347c0,90.899-88.599,165-196,165V145.099c3.6,0,7.899-1.199,10.6-3.6
	c15.601-14.399,36.899-21.299,58.5-19.199c36.299,3.9,66.9,39.599,66.9,78V221c0,5.7,3.6,9.901,6,12.001
	C432.8,263.899,452,304.399,452,347z"/>
<path style="fill:#896748;" d="M392,347c0,56.999-62.8,105-136,105s-136-48.001-136-105c0-8.401,6.599-15,15-15s15,6.599,15,15
	c0,39.899,50.2,75,106,75s106-35.101,106-75c0-8.401,6.599-15,15-15S392,338.599,392,347z"/>
<circle style="fill:#57555C;" cx="195" cy="227" r="15"/>
<circle style="fill:#3C3A41;" cx="317" cy="227" r="15"/>
<path style="fill:#896748;" d="M225,362c-3.838,0-7.676-1.465-10.605-4.395l-15-15c-5.859-5.859-5.859-15.352,0-21.211
	s15.352-5.859,21.211,0l15,15c5.859,5.859,5.859,15.352,0,21.211C232.676,360.535,228.838,362,225,362z"/>
<g>
	<path style="fill:#73553A;" d="M287,362c-3.838,0-7.676-1.465-10.605-4.395c-5.859-5.859-5.859-15.352,0-21.211l15-15
		c5.859-5.859,15.352-5.859,21.211,0s5.859,15.352,0,21.211l-15,15C294.676,360.535,290.838,362,287,362z"/>
	<path style="fill:#73553A;" d="M392,347c0,56.999-62.8,105-136,105v-30c55.8,0,106-35.101,106-75c0-8.401,6.599-15,15-15
		S392,338.599,392,347z"/>
</g>
<g>
</g>
<g>
</g>
<g>
</g>
<g>
</g>
<g>
</g>
<g>
</g>
<g>
</g>
<g>
</g>
<g>
</g>
<g>
</g>
<g>
</g>
<g>
</g>
<g>
</g>
<g>
</g>
<g>
</g>
</svg>
