<?xml version="1.0" encoding="iso-8859-1"?>
<!-- Generator: Adobe Illustrator 19.0.0, SVG Export Plug-In . SVG Version: 6.00 Build 0)  -->
<svg version="1.1" id="Capa_1" xmlns="http://www.w3.org/2000/svg" xmlns:xlink="http://www.w3.org/1999/xlink" x="0px" y="0px"
	 viewBox="0 0 512 512" style="enable-background:new 0 0 512 512;" xml:space="preserve">
<path style="fill:#713708;" d="M422,182L422,182c-49.706,0-90-40.294-90-90l0,0c0-49.706,40.294-92,90-92l0,0
	c49.706,0,90,42.294,90,92l0,0C512,141.706,471.706,182,422,182z"/>
<path style="fill:#FEC478;" d="M422,152c-33.076,0-60-26.909-60-60s26.924-62,60-62s60,28.909,60,62S455.076,152,422,152z"/>
<path style="fill:#994C10;" d="M90,182L90,182c-49.706,0-90-40.294-90-90l0,0C0,42.294,40.294,0,90,0l0,0c49.706,0,90,42.294,90,92
	l0,0C180,141.706,139.706,182,90,182z"/>
<path style="fill:#FEDBAB;" d="M90,152c-33.076,0-60-26.909-60-60s26.924-62,60-62s60,28.909,60,62S123.076,152,90,152z"/>
<path style="fill:#A07854;" d="M496.96,275.3l-69.6-152.1C410.26,86,372.76,62,331.96,62H180.4c-41.1,0-78.6,24-95.7,61.2
	L15.1,275.3C-4.7,318.5-5,368,14.5,411.5C34,454.7,71.2,487.7,118,502.1c21.3,6.6,43.8,9.9,66,9.9h144.06c22.5,0,44.7-3.3,66-9.9
	l1.5-0.3c45.3-14.1,82.5-47.1,102-90.3C517.06,368,516.76,318.5,496.96,275.3z"/>
<path style="fill:#896748;" d="M497.56,411.5c-19.5,43.2-56.7,76.2-102,90.3l-1.5,0.3c-21.3,6.6-43.5,9.9-66,9.9H256V62h75.96
	c40.8,0,78.3,24,95.4,61.2l69.6,152.1C516.76,318.5,517.06,368,497.56,411.5z"/>
<path style="fill:#73553A;" d="M166,302L166,302c-24.853,0-45-20.147-45-45l0,0c0-24.853,20.147-45,45-45l0,0
	c24.853,0,45,20.147,45,45l0,0C211,281.853,190.853,302,166,302z"/>
<path style="fill:#57555C;" d="M166,272c-8.262,0-15-6.724-15-15s6.738-15,15-15s15,6.724,15,15S174.262,272,166,272z"/>
<path style="fill:#59422D;" d="M346,302L346,302c-24.853,0-45-20.147-45-45l0,0c0-24.853,20.147-45,45-45l0,0
	c24.853,0,45,20.147,45,45l0,0C391,281.853,370.853,302,346,302z"/>
<path style="fill:#3C3A41;" d="M346,272c-8.262,0-15-6.724-15-15s6.738-15,15-15s15,6.724,15,15S354.262,272,346,272z"/>
<path style="fill:#FEDBAB;" d="M258.401,212H256c-76.8,2.999-132.599,147.9-132.599,210c0,40.8,23.099,89.399,132.599,90h2.401
	c111.599,0,135-48.9,135-90C393.401,359.299,336.4,212,258.401,212z"/>
<path style="fill:#FEC478;" d="M393.401,422c0,41.1-23.401,90-135,90H256V212h2.401C336.4,212,393.401,359.299,393.401,422z"/>
<path style="fill:#57555C;" d="M258.401,362c-0.901,0-1.8,0-2.401,0.3c-23.699,0.899-42.599,20.7-42.599,44.7
	c0,3.9,1.5,7.8,4.499,10.499l25.501,25.8V497c0,7.5,5.4,13.799,12.599,14.7c0.601,0.3,1.5,0.3,2.401,0.3c8.399,0,15-6.601,15-15
	v-53.701l25.499-25.8c3.001-2.699,4.501-6.599,4.501-10.499C303.401,382.099,283.299,362,258.401,362z"/>
<path style="fill:#3C3A41;" d="M303.401,407c0,3.9-1.5,7.8-4.501,10.499l-25.499,25.8V497c0,8.399-6.601,15-15,15
	c-0.901,0-1.8,0-2.401-0.3V362.3c0.601-0.3,1.5-0.3,2.401-0.3C283.299,362,303.401,382.099,303.401,407z"/>
<g>
</g>
<g>
</g>
<g>
</g>
<g>
</g>
<g>
</g>
<g>
</g>
<g>
</g>
<g>
</g>
<g>
</g>
<g>
</g>
<g>
</g>
<g>
</g>
<g>
</g>
<g>
</g>
<g>
</g>
</svg>
