<?xml version="1.0" encoding="iso-8859-1"?>
<!-- Generator: Adobe Illustrator 19.0.0, SVG Export Plug-In . SVG Version: 6.00 Build 0)  -->
<svg version="1.1" id="Capa_1" xmlns="http://www.w3.org/2000/svg" xmlns:xlink="http://www.w3.org/1999/xlink" x="0px" y="0px"
	 viewBox="0 0 512 512" style="enable-background:new 0 0 512 512;" xml:space="preserve">
<path style="fill:#60C244;" d="M377,511.946c-57.891,0-106-47.109-106-105v-90c0-8.291,7.709-15,16-15h90
	c57.891,0,105,47.109,105,105S434.891,511.946,377,511.946z"/>
<path style="fill:#98CB51;" d="M135,511.946c-57.891,0-105-47.109-105-105s47.109-105,105-105h90c8.291,0,16,6.709,16,15v90
	C241,464.837,192.891,511.946,135,511.946z"/>
<path style="fill:#FFAC46;" d="M380.6,29.346l-6.301,1.8C314.001,46.146,271,102.147,271,163.945v33.001c0,8.399-6.599,15-15,15
	s-15-6.601-15-15v-33.001c0-61.798-43.001-117.8-103.299-132.8l-6.301-1.8c-8.101-1.8-12.9-9.899-10.8-17.999
	c1.8-8.101,9.899-12.9,17.999-10.8l6.301,1.5c50.4,12.599,91,49.401,111.099,94.401c20.099-45,60.7-81.801,111.099-94.401l6.301-1.5
	c8.101-2.1,16.199,2.699,17.999,10.8C393.5,19.447,388.7,27.546,380.6,29.346z"/>
<path style="fill:#98CB51;" d="M377,331.946h-90c-8.291,0-16-6.709-16-15c0-124.072,101.928-225,226-225c8.291,0,15,6.709,15,15v90
	C512,271.39,451.443,331.946,377,331.946z"/>
<path style="fill:#C4D55F;" d="M225,331.946h-90c-74.443,0-135-60.557-135-135v-90c0-8.291,6.709-15,15-15
	c124.072,0,226,100.928,226,225C241,325.237,233.291,331.946,225,331.946z"/>
<path style="fill:#72ECFF;" d="M135,451.946c-24.814,0-45-20.186-45-45s20.186-45,45-45s45,20.186,45,45
	S159.814,451.946,135,451.946z"/>
<path style="fill:#00E2FF;" d="M377,451.946c-24.814,0-45-20.186-45-45s20.186-45,45-45s45,20.186,45,45
	S401.814,451.946,377,451.946z"/>
<path style="fill:#FF941D;" d="M380.6,29.346l-6.301,1.8C314.001,46.146,271,102.147,271,163.945v33.001c0,8.399-6.599,15-15,15
	V96.447c20.099-45,60.7-81.801,111.099-94.401l6.301-1.5c8.101-2.1,16.199,2.699,17.999,10.8
	C393.5,19.447,388.7,27.546,380.6,29.346z"/>
<path style="fill:#896748;" d="M256,181.946c-24.901,0-46,20.099-46,45v180c0,24.899,21.099,45,46,45s46-20.101,46-45v-180
	C302,202.046,280.901,181.946,256,181.946z"/>
<path style="fill:#73553A;" d="M302,226.946v180c0,24.899-21.099,45-46,45v-270C280.901,181.946,302,202.046,302,226.946z"/>
<g>
</g>
<g>
</g>
<g>
</g>
<g>
</g>
<g>
</g>
<g>
</g>
<g>
</g>
<g>
</g>
<g>
</g>
<g>
</g>
<g>
</g>
<g>
</g>
<g>
</g>
<g>
</g>
<g>
</g>
</svg>
